<svg xmlns="http://www.w3.org/2000/svg" xmlns:xlink="http://www.w3.org/1999/xlink" preserveAspectRatio="xMidYMid" width="171" height="22" viewBox="0 0 171 22">
  <defs>
    <style>

      .cls-3 {
        fill: #ffffff;
      }
    </style>
  </defs>
  <g id="socialsvg">
    <path d="M37.363,4.834 C37.363,4.834 37.363,7.034 37.363,7.034 C37.363,7.034 41.029,7.034 41.029,7.034 C41.029,7.034 40.570,10.994 40.570,10.994 C40.570,10.994 37.363,10.994 37.363,10.994 C37.363,10.994 37.363,21.993 37.363,21.993 C37.363,21.993 32.323,21.993 32.323,21.993 C32.323,21.993 32.323,10.994 32.323,10.994 C32.323,10.994 30.032,10.994 30.032,10.994 C30.032,10.994 30.032,7.034 30.032,7.034 C30.032,7.034 32.323,7.034 32.323,7.034 C32.323,7.034 32.323,4.834 32.323,4.834 C32.323,4.834 31.914,0.638 35.988,-0.012 C35.988,-0.012 41.029,-0.012 41.029,-0.012 C41.029,-0.012 41.029,3.514 41.029,3.514 C41.029,3.514 38.738,3.514 38.738,3.514 C38.738,3.514 37.433,3.466 37.363,4.834 Z" id="path-1" class="cls-3" fill-rule="evenodd"/>
    <path d="M96.369,1.047 C95.921,1.211 73.774,9.307 73.338,9.466 C72.967,9.601 72.885,9.933 73.325,10.115 C73.848,10.333 78.276,12.173 78.276,12.173 C78.276,12.173 78.276,12.173 78.276,12.173 C78.276,12.173 81.212,13.394 81.212,13.394 C81.212,13.394 95.349,2.624 95.542,2.478 C95.734,2.331 95.956,2.606 95.816,2.764 C95.676,2.922 85.548,14.284 85.548,14.284 C85.547,14.285 85.547,14.285 85.547,14.285 C85.547,14.285 84.957,14.966 84.957,14.966 C84.957,14.966 85.738,15.403 85.738,15.403 C85.738,15.403 85.738,15.403 85.738,15.403 C85.738,15.403 91.804,18.790 92.236,19.031 C92.615,19.243 93.108,19.067 93.217,18.578 C93.346,18.001 96.928,1.986 97.009,1.629 C97.112,1.165 96.817,0.883 96.369,1.047 ZM81.185,20.705 C81.185,21.039 81.366,21.132 81.617,20.896 C81.944,20.588 85.333,17.433 85.333,17.433 C85.333,17.433 81.185,15.206 81.185,15.206 C81.185,15.206 81.185,20.705 81.185,20.705 Z" id="path-2" class="cls-3" fill-rule="evenodd"/>
    <path d="M21.630,4.420 C21.630,4.420 24.046,3.932 24.046,3.932 C24.046,3.932 22.022,6.247 21.630,6.373 C21.626,6.374 21.622,6.369 21.618,6.370 C21.566,7.498 21.630,7.837 21.630,7.837 C17.011,27.956 0.015,19.061 0.015,19.061 C6.199,19.227 6.750,16.621 6.750,16.621 C3.129,16.065 2.430,13.693 2.430,13.693 C3.661,14.262 4.350,13.205 4.350,13.205 C0.442,12.179 0.990,8.325 0.990,8.325 C1.643,8.931 2.711,9.162 3.346,9.249 C2.904,8.728 -0.744,4.281 1.470,1.980 C1.470,1.980 4.135,6.852 11.190,7.318 C11.190,7.318 11.662,7.198 11.662,7.198 C11.590,6.853 11.550,6.496 11.550,6.129 C11.550,3.298 13.806,1.004 16.590,1.004 C19.945,1.004 20.670,2.956 20.670,2.956 C20.670,2.956 23.070,1.492 23.070,1.492 C23.070,1.492 22.806,3.939 21.630,4.420 Z" id="path-3" class="cls-3" fill-rule="evenodd"/>
    <path d="M167.031,21.000 C167.031,21.000 167.031,12.659 167.031,12.659 C167.031,12.659 167.030,12.659 167.030,12.659 C167.030,12.659 166.609,10.902 165.030,10.993 C163.451,11.083 162.957,11.326 162.230,12.242 C162.230,12.242 162.230,20.989 162.230,20.989 C162.230,20.989 158.230,20.989 158.230,20.989 C158.230,20.989 158.230,7.802 158.230,7.802 C158.230,7.802 162.230,7.802 162.230,7.802 C162.230,7.802 162.230,9.743 162.230,9.743 C162.230,9.743 163.534,7.040 166.230,7.244 C168.704,7.432 170.545,9.046 170.941,12.531 C170.941,12.531 171.031,12.531 171.031,12.531 C171.031,12.531 171.031,21.000 171.031,21.000 C171.031,21.000 167.031,21.000 167.031,21.000 ZM153.438,6.125 C152.109,6.125 151.031,4.978 151.031,3.563 C151.031,2.147 152.109,1.000 153.438,1.000 C154.766,1.000 155.844,2.147 155.844,3.563 C155.844,4.978 154.766,6.125 153.438,6.125 ZM155.430,20.989 C155.430,20.989 151.431,20.989 151.431,20.989 C151.431,20.989 151.431,7.802 151.431,7.802 C151.431,7.802 155.430,7.802 155.430,7.802 C155.430,7.802 155.430,20.989 155.430,20.989 Z" id="path-4" class="cls-3" fill-rule="evenodd"/>
    <path d="M146.951,8.806 C146.468,11.154 146.086,14.331 141.168,15.415 C141.168,15.415 138.288,16.164 137.324,14.084 C136.742,16.319 136.150,18.394 135.829,18.940 C135.058,20.255 133.605,22.011 133.605,22.011 C133.605,22.011 134.021,18.051 134.050,17.178 C134.094,15.829 135.384,9.687 135.384,9.687 C135.384,9.687 134.165,5.380 137.164,4.841 C137.164,4.841 139.596,4.264 138.943,7.484 C138.943,7.484 138.453,9.603 137.849,12.027 C137.849,12.027 138.054,12.331 138.054,12.331 C138.054,12.331 138.653,13.511 139.833,13.653 C141.014,13.795 144.213,11.653 144.282,7.925 C144.351,4.197 143.570,3.127 140.278,2.197 C136.953,1.258 134.194,2.856 133.160,5.722 C131.986,8.972 132.945,9.758 133.605,10.569 C133.605,10.569 133.160,12.772 133.160,12.772 C133.160,12.772 129.968,11.700 130.046,8.365 C130.124,5.031 132.042,-0.013 138.943,-0.013 C145.773,-0.013 147.435,6.458 146.951,8.806 Z" id="path-5" class="cls-3" fill-rule="evenodd"/>
    <path d="M68.155,11.281 C68.155,11.281 65.188,11.281 65.188,11.281 C65.188,11.281 65.188,14.281 65.188,14.281 C65.188,14.764 64.796,15.156 64.313,15.156 C64.313,15.156 64.156,15.156 64.156,15.156 C63.673,15.156 63.281,14.764 63.281,14.281 C63.281,14.281 63.281,11.281 63.281,11.281 C63.281,11.281 60.345,11.281 60.345,11.281 C59.861,11.281 59.469,10.889 59.469,10.405 C59.469,10.405 59.469,10.126 59.469,10.126 C59.469,9.642 59.861,9.250 60.345,9.250 C60.345,9.250 63.281,9.250 63.281,9.250 C63.281,9.250 63.281,6.250 63.281,6.250 C63.281,5.767 63.673,5.375 64.156,5.375 C64.156,5.375 64.313,5.375 64.313,5.375 C64.796,5.375 65.188,5.767 65.188,6.250 C65.188,6.250 65.188,9.250 65.188,9.250 C65.188,9.250 68.155,9.250 68.155,9.250 C68.639,9.250 69.031,9.642 69.031,10.126 C69.031,10.126 69.031,10.405 69.031,10.405 C69.031,10.889 68.639,11.281 68.155,11.281 ZM57.483,2.637 C58.136,3.475 58.531,4.497 58.531,5.609 C58.531,7.699 57.170,9.489 55.225,10.281 C55.378,10.782 55.811,11.304 57.051,12.213 C59.361,13.907 59.446,17.098 59.446,17.098 C59.446,17.098 59.427,17.088 59.427,17.088 C59.435,17.185 59.469,17.277 59.469,17.375 C59.469,19.929 56.461,22.000 52.750,22.000 C49.039,22.000 46.031,19.929 46.031,17.375 C46.031,14.936 48.783,12.960 52.261,12.784 C52.261,12.784 52.261,10.650 52.261,10.650 C49.559,10.313 47.469,8.197 47.469,5.609 C47.469,2.788 49.945,0.500 53.000,0.500 C53.079,0.500 53.153,0.518 53.231,0.522 C53.231,0.522 53.219,0.487 53.219,0.487 C53.219,0.487 58.708,0.024 59.446,-0.001 C60.184,-0.026 59.925,0.976 59.925,0.976 C59.925,0.976 57.483,2.637 57.483,2.637 ZM49.375,17.125 C49.375,18.747 50.977,20.063 52.953,20.063 C54.929,20.063 56.531,18.747 56.531,17.125 C56.531,15.503 54.929,14.188 52.953,14.188 C50.977,14.188 49.375,15.503 49.375,17.125 ZM55.228,5.147 C54.843,3.267 53.523,1.953 52.281,2.212 C51.039,2.472 50.344,4.207 50.730,6.087 C51.116,7.967 52.435,9.281 53.677,9.022 C54.920,8.763 55.614,7.028 55.228,5.147 Z" id="path-6" class="cls-3" fill-rule="evenodd"/>
    <path d="M120.528,21.011 C117.491,21.011 115.030,18.655 115.030,15.748 C115.030,15.748 115.030,11.537 115.030,11.537 C115.030,11.537 116.529,13.116 116.529,13.116 C116.529,13.116 119.528,11.537 119.528,11.537 C119.528,11.537 119.528,15.748 119.528,15.748 C119.528,16.329 119.976,16.801 120.528,16.801 C121.080,16.801 121.528,16.329 121.528,15.748 C121.528,15.748 121.528,11.537 121.528,11.537 C121.528,11.537 126.027,11.537 126.027,11.537 C126.027,11.537 126.027,15.748 126.027,15.748 C126.027,18.655 123.565,21.011 120.528,21.011 ZM115.030,8.379 C115.030,8.379 115.030,6.274 115.030,6.274 C115.030,5.693 114.582,5.221 114.030,5.221 C113.478,5.221 113.030,5.693 113.030,6.274 C113.030,6.274 113.030,11.537 113.030,11.537 C113.030,11.537 113.030,15.748 113.030,15.748 C113.030,18.655 110.568,21.011 107.532,21.011 C104.495,21.011 102.033,18.655 102.033,15.748 C102.033,15.748 102.033,11.537 102.033,11.537 C102.033,11.537 106.532,11.537 106.532,11.537 C106.532,11.537 106.532,15.748 106.532,15.748 C106.532,16.329 106.980,16.801 107.532,16.801 C108.084,16.801 108.531,16.329 108.531,15.748 C108.531,15.748 108.531,11.537 108.531,11.537 C108.531,11.537 108.531,6.274 108.531,6.274 C108.531,3.367 110.993,1.011 114.030,1.011 C117.067,1.011 119.528,3.367 119.528,6.274 C119.528,6.274 119.528,8.379 119.528,8.379 C119.528,8.379 116.529,9.958 116.529,9.958 C116.529,9.958 115.030,8.379 115.030,8.379 Z" id="path-7" class="cls-3" fill-rule="evenodd"/>
  </g>
</svg>
