<?xml version="1.0" encoding="utf-8"?>
<!-- Generator: Adobe Illustrator 18.1.1, SVG Export Plug-In . SVG Version: 6.00 Build 0)  -->
<svg version="1.1" id="SPP_logos" xmlns="http://www.w3.org/2000/svg" xmlns:xlink="http://www.w3.org/1999/xlink" x="0px" y="0px"
	 viewBox="0 0 401.3 69.4" enable-background="new 0 0 401.3 69.4" xml:space="preserve">
<g id="Smart_Podcast_1_">
	<path fill="#392F2C" d="M143.9,7.8c0-1.1,0.9-1.9,2.9-1.9c2.6,0,5.6,0.9,7.8,2.8l3.8-4.9c-2.8-2.4-6.6-3.7-10.8-3.7
		c-6.8,0-10.6,4-10.6,8.5c0,10.3,15.1,7.4,15.1,11c0,1.3-1.4,2.2-3.8,2.2c-3.6,0-6.6-1.6-8.5-3.5l-3.6,5.2c2.7,2.6,6.4,4.2,11.8,4.2
		c7.2,0,11.1-3.6,11.1-8.9C159,8.7,143.9,11.2,143.9,7.8z"/>
	<path fill="#392F2C" d="M186.1,7.3c-3,0-5.6,1.8-6.7,3.4c-0.8-2.3-2.7-3.4-5.5-3.4c-3,0-5.5,1.7-6.4,2.8V7.8h-6.2v19.3h6.2V14.6
		c0.6-0.8,1.8-1.9,3.4-1.9c1.9,0,2.6,1.1,2.6,2.6v11.8h6.2V14.6c0.6-0.8,1.8-1.9,3.5-1.9c1.8,0,2.6,1.1,2.6,2.6v11.8h6.1v-14
		C191.9,9.1,189.7,7.3,186.1,7.3z"/>
	<path fill="#392F2C" d="M208.3,10c-1.5-1.9-3.6-2.8-5.7-2.8c-4.8,0-8.6,3.8-8.6,10.1c0,6.6,3.8,10.2,8.6,10.2
		c2.2,0,4.1-0.9,5.7-2.7v2.2h6.1V7.8h-6.2V10z M208.3,20.4c-0.8,1-2.4,1.8-3.7,1.8c-2.4,0-4.2-1.8-4.2-4.7c0-2.9,1.8-4.6,4.2-4.6
		c1.3,0,2.9,0.7,3.7,1.7V20.4z"/>
	<path fill="#392F2C" d="M223.3,10.1V7.8h-6.2v19.3h6.2V14.8c0.8-1.1,2.9-1.8,4.5-1.8c0.6,0,1.2,0.1,1.5,0.2V7.2
		C227,7.2,224.5,8.6,223.3,10.1z"/>
	<path fill="#392F2C" d="M242.7,22.1c-1.1,0-1.7-0.8-1.7-2v-7h3.9V7.8H241V2.5h-6.1v5.3h-3.2v5.4h3.2v8.8c0,3.7,2.1,5.7,6,5.7
		c2.3,0,3.8-0.6,4.6-1.3l-1.2-4.6C244.1,21.9,243.4,22.1,242.7,22.1z"/>
	<path fill="#392F2C" d="M270.3,0.4h-13.4v26.7h6.9v-9h6.5c6,0,9.3-4,9.3-8.8C279.6,4.4,276.3,0.4,270.3,0.4z M269.4,12.1h-5.6V6.4
		h5.6c1.8,0,3.2,1,3.2,2.9C272.6,11.1,271.2,12.1,269.4,12.1z"/>
	<path fill="#392F2C" d="M291.1,7.3c-6.6,0-10.5,4.7-10.5,10.1c0,5.4,4,10.2,10.5,10.2c6.6,0,10.6-4.7,10.6-10.2
		C301.7,12,297.8,7.3,291.1,7.3z M291.1,22.1c-2.7,0-4.2-2.1-4.2-4.7c0-2.6,1.5-4.7,4.2-4.7c2.7,0,4.2,2.1,4.2,4.7
		C295.4,20,293.8,22.1,291.1,22.1z"/>
	<path fill="#392F2C" d="M318.2,10c-1.6-1.9-3.6-2.8-5.7-2.8c-4.8,0-8.6,3.8-8.6,10.1c0,6.6,3.8,10.2,8.6,10.2
		c2.2,0,4.1-0.9,5.7-2.7v2.2h6.1V0.4h-6.1V10z M318.2,20.4c-0.8,1-2.4,1.8-3.7,1.8c-2.4,0-4.2-1.8-4.2-4.7c0-2.9,1.8-4.7,4.2-4.7
		c1.3,0,2.9,0.7,3.7,1.7V20.4z"/>
	<path fill="#392F2C" d="M337.4,12.7c1.6,0,2.9,0.7,3.6,1.8l4-3.7c-1.2-1.7-3.8-3.6-7.9-3.6c-6,0-10.6,4.1-10.6,10.1
		c0,6.1,4.5,10.2,10.6,10.2c4.2,0,6.8-1.9,7.9-3.6l-4-3.8c-0.8,1.1-2,1.9-3.6,1.9c-2.6,0-4.5-1.8-4.5-4.7S334.8,12.7,337.4,12.7z"/>
	<path fill="#392F2C" d="M360.1,10c-1.5-1.9-3.6-2.8-5.7-2.8c-4.8,0-8.6,3.8-8.6,10.1c0,6.6,3.8,10.2,8.6,10.2
		c2.2,0,4.1-0.9,5.7-2.7v2.2h6.1V7.8h-6.2V10z M360.1,20.4c-0.8,1-2.4,1.8-3.7,1.8c-2.4,0-4.2-1.8-4.2-4.7c0-2.9,1.8-4.6,4.2-4.6
		c1.3,0,2.9,0.7,3.7,1.7V20.4z"/>
	<path fill="#392F2C" d="M374.9,13.2c0-0.8,1-1.4,2.4-1.4c2.3,0,4.5,1,5.7,2.1l2.4-4.1c-2.1-1.5-4.8-2.6-8.1-2.6
		c-5.4,0-8.3,3-8.3,6.4c0,7.8,11.2,5.3,11.2,7.8c0,0.9-0.8,1.5-2.6,1.5c-2.3,0-5.4-1.3-6.8-2.6l-2.6,4.2c2,1.8,5.6,3,9,3
		c5.6,0,8.8-2.7,8.8-6.4C386.1,13.2,374.9,15.4,374.9,13.2z"/>
	<path fill="#392F2C" d="M400.1,21.6c-0.2,0.2-0.9,0.5-1.6,0.5c-1.1,0-1.7-0.8-1.7-2v-7h3.9V7.8h-3.9V2.5h-6.1v5.3h-3.2v5.4h3.2v8.8
		c0,3.7,2.1,5.7,6,5.7c2.3,0,3.8-0.6,4.6-1.3L400.1,21.6z"/>
</g>
<g id="Player_1_">
	<path fill="#392F2C" d="M149.7,34.9H138v26.7h4.7v-10h7c5.6,0,8.7-3.8,8.7-8.4S155.3,34.9,149.7,34.9z M149.1,47.5h-6.4V39h6.4
		c2.6,0,4.6,1.7,4.6,4.2S151.7,47.5,149.1,47.5z"/>
	<path fill="#392F2C" d="M167.5,58.3c-1.2,0-1.8-1-1.8-2.3V34.9h-4.2v22.2c0,3.2,1.7,5,5,5c1.9,0,3.2-0.5,3.9-1.2l-1-3.2
		C169,58,168.3,58.3,167.5,58.3z"/>
	<path fill="#392F2C" d="M185.8,44.9c-1.5-2-3.8-3.2-6.2-3.2c-5,0-8.6,3.9-8.6,10.2c0,6.4,3.6,10.1,8.6,10.1c2.5,0,4.7-1.2,6.2-3.1
		v2.6h4.2V42.3h-4.2V44.9z M185.8,55.8c-1,1.4-3,2.6-5,2.6c-3.3,0-5.4-2.7-5.4-6.4c0-3.8,2.1-6.4,5.4-6.4c2,0,4,1.2,5,2.6V55.8z"/>
	<path fill="#392F2C" d="M206,55.2c-1,1.3-2.8,2.5-5,2.5c-2.4,0-3.9-0.9-3.9-3.9V42.3H193v13c0,4,2,6.1,6.2,6.1c3,0,5.4-1.5,6.8-3
		v2.2c0,3.4-2,5.4-5.5,5.4c-2.2,0-4.4-0.7-5.8-2.5l-2,3c2.1,2,4.6,2.9,7.8,2.9c5.6,0,9.7-3,9.7-8.8V42.3H206V55.2z"/>
	<path fill="#392F2C" d="M222.7,41.8c-5.7,0-9.8,4.5-9.8,10.1c0,6.1,4.3,10.2,10.1,10.2c3.1,0,5.9-1,7.8-2.8l-1.9-2.8
		c-1.4,1.4-3.6,2.1-5.5,2.1c-3.6,0-5.8-2.4-6.2-5.3h14.9v-1C232.2,46.2,228.5,41.8,222.7,41.8z M217.3,50.3c0.2-2.4,1.8-5.1,5.4-5.1
		c3.8,0,5.4,2.8,5.4,5.1H217.3z"/>
	<path fill="#392F2C" d="M239.1,45.1v-2.8h-4.2v19.3h4.2V48.4c0.8-1.4,3.2-2.6,5-2.6c0.5,0,1,0,1.3,0.1v-4.2
		C242.8,41.8,240.5,43.3,239.1,45.1z"/>
</g>
<g id="SPP_1_">
	<path fill="#05A34A" d="M62.5,47.8c9.7,0,17.1-7.1,17.1-20.5c0-13.3-7.4-20.4-17.1-20.4c-4,0-7.8,1.4-11,5.1V7.8H37.1v53.8h14.5
		V42.7C54.8,46.4,58.5,47.8,62.5,47.8z M57.5,34.9c-1.9,0-4.7-1-6-2.7v-9.9c1.4-1.7,4.1-2.7,6-2.7c3.9,0,7.2,2.7,7.2,7.6
		C64.8,32.2,61.4,34.9,57.5,34.9z"/>
	<path fill="#05A34A" d="M104.6,47.8c9.7,0,17.1-7.1,17.1-20.5c0-13.3-7.4-20.4-17.1-20.4c-4,0-7.8,1.4-11,5.1V7.8H79.2v53.8h14.5
		V42.7C96.9,46.4,100.6,47.8,104.6,47.8z M99.6,34.9c-1.9,0-4.7-1-6-2.7v-9.9c1.4-1.7,4.1-2.7,6-2.7c3.9,0,7.2,2.7,7.2,7.6
		C106.9,32.2,103.5,34.9,99.6,34.9z"/>
	<path fill="#05A34A" d="M19.1,47.8c11.5,0,18.4-5.6,18.4-13.4c0-16.2-22.1-12.2-22.1-15.4c0-1,1.5-1.7,3.6-1.7c4.5,0,9,2,11.4,4
		l5.3-9.4c-4.5-3-10.3-5-16.8-5C7.7,6.9,1.6,13,1.6,20c0,16.3,22.1,11.5,22.1,15.2c0,1-0.9,1.7-3.9,1.7c-4.3,0-11-2.5-14-4.9L0,41.8
		C4.2,45.3,11.9,47.8,19.1,47.8z"/>
</g>
</svg>
